<?xml version="1.0" standalone="no"?><!DOCTYPE svg PUBLIC "-//W3C//DTD SVG 1.1//EN" "http://www.w3.org/Graphics/SVG/1.1/DTD/svg11.dtd"><svg t="1701962452914" class="icon" viewBox="0 0 1024 1024" version="1.1" xmlns="http://www.w3.org/2000/svg" p-id="13638" xmlns:xlink="http://www.w3.org/1999/xlink" width="200" height="200"><path d="M823.652174 912.695652l-178.086957 0c-49.174261 0-89.043478-39.869217-89.043478-89.043478l0-178.086957c0-49.174261 39.869217-89.043478 89.043478-89.043478l178.086957 0c49.174261 0 89.043478 39.869217 89.043478 89.043478l0 178.086957C912.695652 872.826435 872.826435 912.695652 823.652174 912.695652zM868.173913 645.565217c0-24.598261-19.923478-44.521739-44.521739-44.521739l-178.086957 0c-24.598261 0-44.521739 19.923478-44.521739 44.521739l0 178.086957c0 24.576 19.923478 44.521739 44.521739 44.521739l178.086957 0c24.598261 0 44.521739-19.945739 44.521739-44.521739L868.173913 645.565217zM801.391304 467.478261l-178.086957 0c-49.174261 0-89.043478-39.869217-89.043478-89.043478L534.26087 200.347826c0-49.174261 39.869217-89.043478 89.043478-89.043478l178.086957 0c49.174261 0 89.043478 39.869217 89.043478 89.043478l0 178.086957C890.434783 427.609043 850.565565 467.478261 801.391304 467.478261zM845.913043 200.347826c0-24.598261-19.923478-44.521739-44.521739-44.521739l-178.086957 0c-24.598261 0-44.521739 19.923478-44.521739 44.521739l0 178.086957c0 24.598261 19.923478 44.521739 44.521739 44.521739l178.086957 0c24.598261 0 44.521739-19.923478 44.521739-44.521739L845.913043 200.347826zM378.434783 912.695652 200.347826 912.695652c-49.174261 0-89.043478-39.869217-89.043478-89.043478l0-178.086957c0-49.174261 39.869217-89.043478 89.043478-89.043478l178.086957 0c49.174261 0 89.043478 39.869217 89.043478 89.043478l0 178.086957C467.478261 872.826435 427.609043 912.695652 378.434783 912.695652zM422.956522 645.565217c0-24.598261-19.923478-44.521739-44.521739-44.521739L200.347826 601.043478c-24.598261 0-44.521739 19.923478-44.521739 44.521739l0 178.086957c0 24.576 19.923478 44.521739 44.521739 44.521739l178.086957 0c24.598261 0 44.521739-19.945739 44.521739-44.521739L422.956522 645.565217z" p-id="13639" fill="#ffffff"></path></svg>