<?xml version="1.0" standalone="no"?><!DOCTYPE svg PUBLIC "-//W3C//DTD SVG 1.1//EN" "http://www.w3.org/Graphics/SVG/1.1/DTD/svg11.dtd"><svg t="1706696450714" class="icon" viewBox="0 0 1024 1024" version="1.1" xmlns="http://www.w3.org/2000/svg" p-id="18815" xmlns:xlink="http://www.w3.org/1999/xlink" width="200" height="200"><path d="M153.6 637.44c-55.296 0-99.84-44.544-99.84-99.84V445.44c0-55.296 44.544-99.84 99.84-99.84h716.8c55.296 0 99.84 44.544 99.84 99.84v92.16c0 55.296-44.544 99.84-99.84 99.84H153.6z" fill="#FFFFFF" p-id="18816"></path><path d="M870.4 348.16c53.76 0 97.28 43.52 97.28 97.28v92.16c0 53.76-43.52 97.28-97.28 97.28H153.6c-53.76 0-97.28-43.52-97.28-97.28V445.44c0-53.76 43.52-97.28 97.28-97.28h716.8m0-5.12H153.6c-56.32 0-102.4 46.08-102.4 102.4v92.16c0 56.32 46.08 102.4 102.4 102.4h716.8c56.32 0 102.4-46.08 102.4-102.4V445.44c0-56.32-46.08-102.4-102.4-102.4z" fill="#666666" p-id="18817"></path><path d="M239.616 421.376c4.096-5.632 9.216-13.824 11.776-19.456l22.016 4.608c-4.096 6.144-7.168 10.752-11.264 15.36H286.72c9.216 0 15.36-0.512 20.992-1.024V440.32c-5.12-1.024-10.24-1.024-17.92-1.024h-37.888v34.304h27.136l-15.872-7.168c5.632-8.704 9.728-16.896 12.8-27.136l19.456 6.656c-5.12 12.288-6.656 14.848-13.824 27.136h12.288c8.704 0 14.336-0.512 19.456-1.024v20.48c-6.144-1.024-10.752-1.024-19.968-1.024H157.696c-8.704 0-13.312 0-19.456 1.024v-20.48c5.12 1.024 10.752 1.024 19.456 1.024H168.96c-5.12-11.264-8.704-17.92-15.36-26.112l16.384-7.68c7.168 9.728 9.728 13.824 16.384 26.624l-15.36 7.168h26.624v-34.304h-36.352c-7.168 0-12.288 0-18.432 1.024v-19.456c6.144 1.024 11.776 1.024 20.992 1.024h23.552c-4.096-6.656-5.632-9.216-11.264-15.36l20.48-4.096c6.656 7.68 9.216 11.776 13.824 19.456h29.184zM160.768 517.12c0-7.68 0-12.288-1.024-17.408 6.656 0.512 11.776 1.024 18.432 1.024H271.36c7.168 0 11.776 0 18.432-1.024-0.512 5.12-1.024 9.216-1.024 17.408v44.544c0 8.704 0.512 15.36 1.024 20.992h-22.016v-7.168H181.76v7.168h-22.016c1.024-6.144 1.024-12.288 1.024-20.48V517.12z m20.992 12.8h86.528V517.12H181.76v12.8z m0 28.672h86.528v-12.8H181.76v12.8z m34.816-85.504h16.384v-34.304h-16.384v34.304zM372.736 542.72c1.024 0.512 1.024 0.512 8.704 6.656 10.752 8.192 22.528 10.24 54.272 10.24 28.16 0 49.152-1.536 76.8-5.12-4.608 13.312-5.632 16.896-6.144 23.552-18.944 1.024-32.768 1.024-69.632 1.024-39.936 0-53.248-3.072-67.072-15.36-3.072-2.56-5.632-4.096-6.656-4.096-2.56 0-3.584 1.024-9.728 7.68-5.12 5.12-5.12 5.12-7.68 8.704-1.536 2.048-2.048 2.56-3.584 4.096l-15.36-16.896c2.048-2.048 2.048-2.048 9.216-8.704 5.12-4.608 11.264-9.216 16.384-12.288v-44.032h-9.728c-4.608 0-8.192 0-12.288 1.024v-22.016c5.12 1.024 8.192 1.024 14.848 1.024H358.4c6.144 0 10.24 0 14.848-1.024-0.512 6.144-1.024 10.752-1.024 20.992v44.544z m-28.16-136.704c13.824 12.288 24.064 22.528 33.792 35.328l-15.36 14.336c-11.264-15.36-19.456-24.576-33.28-36.352l14.848-13.312zM423.424 445.44l-5.12-3.072c-5.12-3.584-6.656-4.096-11.264-6.656l15.872-9.216c7.168 4.608 8.704 5.632 22.016 15.36 7.68-5.12 9.728-6.656 22.016-16.384H403.456c-9.728 0-14.336 0.512-20.48 1.024v-18.432c6.144 1.024 12.288 1.024 23.552 1.024h62.976c12.288 0 18.432-0.512 22.016-1.536l10.24 12.288c-3.072 2.048-4.096 2.56-9.728 7.168-7.68 6.656-17.92 13.824-25.088 18.432h15.36c9.728 0 15.36 0 19.968-1.024-0.512 5.12-1.024 11.776-1.024 22.528v59.904c0 11.264-1.024 14.848-3.584 17.92-3.584 3.072-8.192 4.608-20.48 4.608h-8.704c-0.512-7.68-1.536-12.8-4.608-18.432 5.632 1.024 9.216 1.024 12.8 1.024 4.096 0 4.096 0 4.096-5.632v-7.68h-29.184v8.192c0 10.752 0 15.36 1.024 21.504h-21.504c1.024-5.632 1.024-11.264 1.024-21.504v-8.192h-26.112v9.728c0 11.264 0 16.384 1.024 20.992h-22.016c1.024-5.12 1.024-11.264 1.024-20.992v-61.44c0-11.264 0-16.384-1.024-22.528 6.144 1.024 11.776 1.024 22.016 1.024h16.384z m9.728 29.184v-12.8h-26.112v12.8h26.112z m0 28.672v-12.8h-26.112v12.8h26.112z m18.944-28.672H481.28v-12.8h-29.184v12.8z m29.184 15.36h-29.184v12.8H481.28v-12.8zM626.688 553.984c0 11.264 0 17.408 1.024 23.04h-23.04c1.024-5.632 1.024-11.264 1.024-23.04V522.24h-44.544c-3.072 26.624-8.704 44.032-19.968 61.44-8.192-7.68-10.752-9.728-18.944-15.36 16.384-23.552 19.968-47.104 19.968-130.56 0-13.824 0-19.456-1.024-27.136 6.656 0.512 11.776 1.024 22.528 1.024h109.056c10.752 0 16.384 0 22.528-1.024-0.512 6.656-1.024 11.264-1.024 22.016v128c0 16.384-5.632 20.48-28.16 20.48-6.656 0-15.872-0.512-22.016-1.024-1.024-7.168-2.56-12.288-5.632-20.48 9.728 1.024 17.92 1.536 24.576 1.536 8.192 0 9.728-1.024 9.728-5.12V522.24h-46.592v31.744z m-20.48-77.824H563.2l-0.512 26.624h43.52V476.16z m0-44.544h-42.496v25.6h42.496v-25.6z m67.072 25.6v-25.6h-46.592v25.6h46.592z m0 45.568V476.16h-46.592v26.624h46.592zM807.424 431.104c-0.512-0.512-0.512-0.512-1.024-1.536-4.608-8.192-7.168-12.8-13.824-20.992l19.456-8.192c5.632 6.144 11.264 15.36 16.384 25.088l-10.752 5.12h43.008c6.656 0 12.8 0 19.968-1.024-0.512 5.632-1.024 9.728-1.024 18.432v52.224c0 10.24 0 14.336 1.024 19.456h-23.04v-12.288h-95.232c-1.536 16.896-3.584 28.16-8.192 41.472-4.608 13.824-9.728 23.04-18.944 35.328-6.144-7.68-9.216-10.752-17.408-16.384 7.168-8.704 10.752-14.336 14.848-23.04 4.096-8.704 6.144-16.896 7.68-30.208 1.536-12.288 2.56-29.184 2.56-45.568 0-14.336-0.512-25.088-1.024-38.912 7.168 0.512 11.776 0.512 20.48 0.512h45.056z m50.176 57.856V450.56h-93.184v26.112c0 4.096 0 6.144-0.512 12.8h93.696z" fill="#666666" p-id="18818" width="50" height="30></path></svg>